<?xml version="1.0" encoding="utf-8"?>
<!-- Generator: Adobe Illustrator 23.0.2, SVG Export Plug-In . SVG Version: 6.00 Build 0)  -->
<svg version="1.1" id="Layer_1" xmlns="http://www.w3.org/2000/svg" xmlns:xlink="http://www.w3.org/1999/xlink" x="0px" y="0px"
	 viewBox="0 0 1000 1000" style="enable-background:new 0 0 1000 1000;" xml:space="preserve">
<style type="text/css">
	.st0{display:none;}
	.st1{display:inline;fill-rule:evenodd;clip-rule:evenodd;fill:#46CDFD;}
	.st2{display:inline;}
	.st3{fill:#46CDFD;}
	.st4{display:inline;fill:#46CDFD;}
	.st5{fill-rule:evenodd;clip-rule:evenodd;fill:#FFFFFF;}
</style>
<g xmlns:serif="http://www.serif.com/" class="st0">
	<path class="st1" d="M500,167.5c183.5,0,332.5,149,332.5,332.5S683.5,832.5,500,832.5S167.5,683.5,167.5,500S316.5,167.5,500,167.5
		z M694.1,675.3v-6.5L663.7,639c-2.7-2-4-5.4-3.5-8.7V411c-0.6-3.3,0.8-6.7,3.5-8.7l31.1-29.8V366H587.1l-76.8,191.5L423,365.9H310
		v6.5l36.4,43.8c3.6,3.2,5.4,7.9,4.9,12.7v172.2c1.1,6.2-0.9,12.6-5.3,17.1L305.2,668v6.5h116.1V668l-40.9-49.7
		c-4.4-4.5-6.5-10.8-5.6-17.1v-149l101.9,222.2h11.8L576,452.2v177.1c0,4.7,0,5.6-3.1,8.7l-31.5,30.6v6.5h152.7V675.3z"/>
</g>
<g class="st0">
	<path class="st1" d="M499.8,166.7c183.4,0,332.3,148.9,332.3,332.3S683.2,831.3,499.8,831.3S167.5,682.4,167.5,499
		S316.4,166.7,499.8,166.7z M441.3,675.8c147.1,0,227.5-121.9,227.5-227.5c0-3.5,0-7-0.2-10.3c15.6-11.3,29.2-25.4,40-41.4
		c-14.3,6.3-29.7,10.6-45.9,12.6c16.6-9.9,29.2-25.5,35.2-44.3c-15.4,9.1-32.5,15.8-50.7,19.4c-14.6-15.6-35.3-25.2-58.4-25.2
		c-44.1,0-79.9,35.8-79.9,79.9c0,6.3,0.7,12.4,2.2,18.2c-66.5-3.3-125.3-35.1-164.8-83.6c-6.8,11.8-10.8,25.5-10.8,40.1
		c0,27.7,14.1,52.2,35.6,66.5c-13.1-0.3-25.4-4-36.1-9.9v1c0,38.8,27.5,71,64.2,78.4c-6.6,1.8-13.8,2.8-21.1,2.8
		c-5.1,0-10.1-0.5-15.1-1.5c10.1,31.8,39.6,54.9,74.6,55.5c-27.4,21.4-61.8,34.2-99.3,34.2c-6.5,0-12.8-0.3-19.1-1.2
		C354.1,662.5,396.2,675.8,441.3,675.8L441.3,675.8z"/>
</g>
<g id="Layer_3" class="st0">
	<g class="st2">
		<circle class="st3" cx="497.1" cy="501.7" r="59.4"/>
		<path class="st3" d="M571.4,355.8H422.8c-21.6,0-40.5,6.8-52.7,18.9c-12.2,12.2-18.9,31.1-18.9,52.7V576c0,21.6,6.8,40.5,20.3,54
			c13.5,12.2,31.1,18.9,52.7,18.9h147.3c21.6,0,40.5-6.8,52.7-18.9c13.5-12.2,20.3-31.1,20.3-52.7V428.7c0-21.6-6.8-39.2-18.9-52.7
			C611.9,362.6,594.4,355.8,571.4,355.8z M497.1,593.6c-51.3,0-91.9-41.9-91.9-91.9c0-51.3,41.9-91.9,91.9-91.9s93.2,40.5,93.2,91.9
			S548.4,593.6,497.1,593.6z M593,427.4c-12.2,0-21.6-9.5-21.6-21.6s9.5-21.6,21.6-21.6c12.2,0,21.6,9.5,21.6,21.6
			S605.2,427.4,593,427.4z"/>
		<path class="st3" d="M499.8,166.7c-183.7,0-332.3,148.6-332.3,332.3s148.6,332.3,332.3,332.3S832.2,682.7,832.2,499
			C833.5,315.3,683.5,166.7,499.8,166.7z M676.8,577.4c0,31.1-10.8,58.1-29.7,77s-45.9,28.4-75.7,28.4H424.2
			c-29.7,0-56.7-9.5-75.7-28.4c-20.3-18.9-29.7-45.9-29.7-77V428.7c0-62.1,41.9-105.4,105.4-105.4h148.6c31.1,0,56.7,10.8,75.7,29.7
			c18.9,18.9,28.4,44.6,28.4,75.7C676.8,428.7,676.8,577.4,676.8,577.4z"/>
	</g>
</g>
<g id="Layer_4" class="st0">
	<path class="st4" d="M499.8,166.7c-183.6,0-332.3,148.8-332.3,332.3s148.8,332.3,332.3,332.3S832.2,682.6,832.2,499
		S683.4,166.7,499.8,166.7z M672.6,376.9l-59,281.8c-2.4,11.2-13.4,18.4-24.6,16.1c-2.9-0.6-5.7-1.8-8.1-3.6L495,607.7l-52,49.1
		c-2.8,2.7-7.3,2.5-10-0.3l-0.1-0.1l-1.1-1.2l9-87.5l162.9-148.8c1.8-1.6,1.9-4.4,0.3-6.2c-1.4-1.6-3.8-1.9-5.6-0.7L390.1,543.8
		l-89.7-30.1c-6.4-2.1-9.8-9.1-7.7-15.4c1.2-3.5,3.8-6.2,7.3-7.5l351.1-132.2c8.3-3.1,17.7,1.1,20.8,9.4
		C672.9,370.8,673.2,373.9,672.6,376.9z"/>
</g>
<g id="Layer_5">
	<path class="st5" d="M499.8,166.7C683.2,166.7,832,315.6,832,499S683.2,831.3,499.8,831.3S167.5,682.4,167.5,499
		S316.4,166.7,499.8,166.7z M698.8,399c-4.8-17.9-18.8-31.9-36.7-36.7c-32.4-8.7-162.3-8.7-162.3-8.7s-129.9,0-162.3,8.7
		c-17.9,4.8-31.9,18.8-36.7,36.7c-8.7,32.4-8.7,100-8.7,100s0,67.6,8.7,100c4.8,17.9,18.9,31.9,36.7,36.7
		c32.4,8.7,162.3,8.7,162.3,8.7s129.9,0,162.3-8.7c17.9-4.8,31.9-18.9,36.7-36.7c8.7-32.4,8.7-100,8.7-100S707.4,431.4,698.8,399
		L698.8,399z M458.2,561.3V436.7L566.1,499L458.2,561.3L458.2,561.3z"/>
</g>
</svg>
